<?xml version="1.0" encoding="us-ascii" standalone="no"?><svg xmlns="http://www.w3.org/2000/svg" xmlns:xlink="http://www.w3.org/1999/xlink" contentStyleType="text/css" height="1090px" preserveAspectRatio="none" style="width:3424px;height:1090px;background:#FFFFFF;" version="1.1" viewBox="0 0 3424 1090" width="3424px" zoomAndPan="magnify"><defs/><g><!--class Habitacion--><g id="elem_Habitacion"><rect codeLine="2" fill="#F1F1F1" height="215.5898" id="Habitacion" rx="2.5" ry="2.5" style="stroke:#181818;stroke-width:0.5;" width="372" x="1534" y="320"/><ellipse cx="1682.75" cy="336" fill="#ADD1B2" rx="11" ry="11" style="stroke:#181818;stroke-width:1.0;"/><path d="M1685.5156,331.875 Q1685.6719,331.6563 1685.8594,331.5469 Q1686.0469,331.4375 1686.2656,331.4375 Q1686.6406,331.4375 1686.875,331.7031 Q1687.1094,331.9531 1687.1094,332.5625 L1687.1094,334.0156 Q1687.1094,334.625 1686.875,334.8906 Q1686.6406,335.1563 1686.2656,335.1563 Q1685.9219,335.1563 1685.7188,334.9531 Q1685.5156,334.7656 1685.4063,334.25 Q1685.3594,333.8906 1685.1719,333.7031 Q1684.8438,333.3281 1684.2344,333.1094 Q1683.625,332.8906 1683,332.8906 Q1682.2344,332.8906 1681.5938,333.2188 Q1680.9688,333.5469 1680.4688,334.2969 Q1679.9844,335.0469 1679.9844,336.0781 L1679.9844,337.1719 Q1679.9844,338.4063 1680.875,339.2344 Q1681.7656,340.0469 1683.3594,340.0469 Q1684.2969,340.0469 1684.9531,339.7969 Q1685.3438,339.6406 1685.7656,339.2031 Q1686.0313,338.9375 1686.1719,338.8594 Q1686.3281,338.7813 1686.5313,338.7813 Q1686.8594,338.7813 1687.1094,339.0469 Q1687.375,339.2969 1687.375,339.6406 Q1687.375,339.9844 1687.0313,340.3906 Q1686.5313,340.9688 1685.7344,341.2969 Q1684.6563,341.75 1683.3594,341.75 Q1681.8438,341.75 1680.6406,341.125 Q1679.6563,340.625 1678.9688,339.5625 Q1678.2813,338.4844 1678.2813,337.2031 L1678.2813,336.0469 Q1678.2813,334.7188 1678.8906,333.5781 Q1679.5156,332.4219 1680.6094,331.8125 Q1681.7031,331.1875 1682.9375,331.1875 Q1683.6719,331.1875 1684.3125,331.3594 Q1684.9688,331.5156 1685.5156,331.875 Z " fill="#000000"/><text fill="#000000" font-family="sans-serif" font-size="14" lengthAdjust="spacing" textLength="66" x="1703.25" y="341.7969">Habitacion</text><line style="stroke:#181818;stroke-width:0.5;" x1="1535" x2="1905" y1="352" y2="352"/><rect fill="none" height="6" style="stroke:#C82930;stroke-width:1.0;" width="6" x="1542" y="363.8105"/><text fill="#000000" font-family="sans-serif" font-size="14" lengthAdjust="spacing" textLength="67" x="1554" y="371.1074">int numero</text><rect fill="none" height="6" style="stroke:#C82930;stroke-width:1.0;" width="6" x="1542" y="382.4316"/><text fill="#000000" font-family="sans-serif" font-size="14" lengthAdjust="spacing" textLength="64" x="1554" y="389.7285">String tipo</text><rect fill="none" height="6" style="stroke:#C82930;stroke-width:1.0;" width="6" x="1542" y="401.0527"/><text fill="#000000" font-family="sans-serif" font-size="14" lengthAdjust="spacing" textLength="118" x="1554" y="408.3496">double precioBase</text><rect fill="none" height="6" style="stroke:#C82930;stroke-width:1.0;" width="6" x="1542" y="419.6738"/><text fill="#000000" font-family="sans-serif" font-size="14" lengthAdjust="spacing" textLength="329" x="1554" y="426.9707">GestorDisponibilidadHabitacion gestorDisponibilidad</text><line style="stroke:#181818;stroke-width:0.5;" x1="1535" x2="1905" y1="434.4844" y2="434.4844"/><ellipse cx="1545" cy="449.2949" fill="#84BE84" rx="3" ry="3" style="stroke:#038048;stroke-width:1.0;"/><text fill="#000000" font-family="sans-serif" font-size="14" lengthAdjust="spacing" textLength="98" x="1554" y="453.5918">getNumero() int</text><ellipse cx="1545" cy="467.916" fill="#84BE84" rx="3" ry="3" style="stroke:#038048;stroke-width:1.0;"/><text fill="#000000" font-family="sans-serif" font-size="14" lengthAdjust="spacing" textLength="99" x="1554" y="472.2129">getTipo() String</text><ellipse cx="1545" cy="486.5371" fill="#84BE84" rx="3" ry="3" style="stroke:#038048;stroke-width:1.0;"/><text fill="#000000" font-family="sans-serif" font-size="14" lengthAdjust="spacing" textLength="149" x="1554" y="490.834">getPrecioBase() double</text><ellipse cx="1545" cy="505.1582" fill="#84BE84" rx="3" ry="3" style="stroke:#038048;stroke-width:1.0;"/><text fill="#000000" font-family="sans-serif" font-size="14" lengthAdjust="spacing" textLength="217" x="1554" y="509.4551">setPrecioBase(double precio) void</text><ellipse cx="1545" cy="523.7793" fill="#84BE84" rx="3" ry="3" style="stroke:#038048;stroke-width:1.0;"/><text fill="#000000" font-family="sans-serif" font-size="14" lengthAdjust="spacing" textLength="346" x="1554" y="528.0762">getPrecioFinal(Date fechaInicio, Date fechaFin) double</text></g><!--class GestorDisponibilidadHabitacion--><g id="elem_GestorDisponibilidadHabitacion"><rect codeLine="14" fill="#F1F1F1" height="159.7266" id="GestorDisponibilidadHabitacion" rx="2.5" ry="2.5" style="stroke:#181818;stroke-width:0.5;" width="513" x="1524.5" y="596"/><ellipse cx="1678.25" cy="612" fill="#ADD1B2" rx="11" ry="11" style="stroke:#181818;stroke-width:1.0;"/><path d="M1681.0156,607.875 Q1681.1719,607.6563 1681.3594,607.5469 Q1681.5469,607.4375 1681.7656,607.4375 Q1682.1406,607.4375 1682.375,607.7031 Q1682.6094,607.9531 1682.6094,608.5625 L1682.6094,610.0156 Q1682.6094,610.625 1682.375,610.8906 Q1682.1406,611.1563 1681.7656,611.1563 Q1681.4219,611.1563 1681.2188,610.9531 Q1681.0156,610.7656 1680.9063,610.25 Q1680.8594,609.8906 1680.6719,609.7031 Q1680.3438,609.3281 1679.7344,609.1094 Q1679.125,608.8906 1678.5,608.8906 Q1677.7344,608.8906 1677.0938,609.2188 Q1676.4688,609.5469 1675.9688,610.2969 Q1675.4844,611.0469 1675.4844,612.0781 L1675.4844,613.1719 Q1675.4844,614.4063 1676.375,615.2344 Q1677.2656,616.0469 1678.8594,616.0469 Q1679.7969,616.0469 1680.4531,615.7969 Q1680.8438,615.6406 1681.2656,615.2031 Q1681.5313,614.9375 1681.6719,614.8594 Q1681.8281,614.7813 1682.0313,614.7813 Q1682.3594,614.7813 1682.6094,615.0469 Q1682.875,615.2969 1682.875,615.6406 Q1682.875,615.9844 1682.5313,616.3906 Q1682.0313,616.9688 1681.2344,617.2969 Q1680.1563,617.75 1678.8594,617.75 Q1677.3438,617.75 1676.1406,617.125 Q1675.1563,616.625 1674.4688,615.5625 Q1673.7813,614.4844 1673.7813,613.2031 L1673.7813,612.0469 Q1673.7813,610.7188 1674.3906,609.5781 Q1675.0156,608.4219 1676.1094,607.8125 Q1677.2031,607.1875 1678.4375,607.1875 Q1679.1719,607.1875 1679.8125,607.3594 Q1680.4688,607.5156 1681.0156,607.875 Z " fill="#000000"/><text fill="#000000" font-family="sans-serif" font-size="14" lengthAdjust="spacing" textLength="197" x="1698.75" y="617.7969">GestorDisponibilidadHabitacion</text><line style="stroke:#181818;stroke-width:0.5;" x1="1525.5" x2="2036.5" y1="628" y2="628"/><rect fill="none" height="6" style="stroke:#C82930;stroke-width:1.0;" width="6" x="1532.5" y="639.8105"/><text fill="#000000" font-family="sans-serif" font-size="14" lengthAdjust="spacing" textLength="150" x="1544.5" y="647.1074">List~Reserva~ reservas</text><rect fill="none" height="6" style="stroke:#C82930;stroke-width:1.0;" width="6" x="1532.5" y="658.4316"/><text fill="#000000" font-family="sans-serif" font-size="14" lengthAdjust="spacing" textLength="190" x="1544.5" y="665.7285">List~Promocion~ promociones</text><line style="stroke:#181818;stroke-width:0.5;" x1="1525.5" x2="2036.5" y1="673.2422" y2="673.2422"/><ellipse cx="1535.5" cy="688.0527" fill="#84BE84" rx="3" ry="3" style="stroke:#038048;stroke-width:1.0;"/><text fill="#000000" font-family="sans-serif" font-size="14" lengthAdjust="spacing" textLength="401" x="1544.5" y="692.3496">verificarDisponibilidad(Date fechaInicio, Date fechaFin) boolean</text><ellipse cx="1535.5" cy="706.6738" fill="#84BE84" rx="3" ry="3" style="stroke:#038048;stroke-width:1.0;"/><text fill="#000000" font-family="sans-serif" font-size="14" lengthAdjust="spacing" textLength="388" x="1544.5" y="710.9707">marcarComoReservada(Date fechaInicio, Date fechaFin) void</text><ellipse cx="1535.5" cy="725.2949" fill="#84BE84" rx="3" ry="3" style="stroke:#038048;stroke-width:1.0;"/><text fill="#000000" font-family="sans-serif" font-size="14" lengthAdjust="spacing" textLength="385" x="1544.5" y="729.5918">marcarComoDisponible(Date fechaInicio, Date fechaFin) void</text><ellipse cx="1535.5" cy="743.916" fill="#84BE84" rx="3" ry="3" style="stroke:#038048;stroke-width:1.0;"/><text fill="#000000" font-family="sans-serif" font-size="14" lengthAdjust="spacing" textLength="487" x="1544.5" y="748.2129">calcularPrecio(Habitacion habitacion, Date fechaInicio, Date fechaFin) double</text></g><!--class Promocion--><g id="elem_Promocion"><rect codeLine="23" fill="#F1F1F1" height="141.1055" id="Promocion" rx="2.5" ry="2.5" style="stroke:#181818;stroke-width:0.5;" width="214" x="1829" y="816"/><ellipse cx="1898.25" cy="832" fill="#ADD1B2" rx="11" ry="11" style="stroke:#181818;stroke-width:1.0;"/><path d="M1901.0156,827.875 Q1901.1719,827.6563 1901.3594,827.5469 Q1901.5469,827.4375 1901.7656,827.4375 Q1902.1406,827.4375 1902.375,827.7031 Q1902.6094,827.9531 1902.6094,828.5625 L1902.6094,830.0156 Q1902.6094,830.625 1902.375,830.8906 Q1902.1406,831.1563 1901.7656,831.1563 Q1901.4219,831.1563 1901.2188,830.9531 Q1901.0156,830.7656 1900.9063,830.25 Q1900.8594,829.8906 1900.6719,829.7031 Q1900.3438,829.3281 1899.7344,829.1094 Q1899.125,828.8906 1898.5,828.8906 Q1897.7344,828.8906 1897.0938,829.2188 Q1896.4688,829.5469 1895.9688,830.2969 Q1895.4844,831.0469 1895.4844,832.0781 L1895.4844,833.1719 Q1895.4844,834.4063 1896.375,835.2344 Q1897.2656,836.0469 1898.8594,836.0469 Q1899.7969,836.0469 1900.4531,835.7969 Q1900.8438,835.6406 1901.2656,835.2031 Q1901.5313,834.9375 1901.6719,834.8594 Q1901.8281,834.7813 1902.0313,834.7813 Q1902.3594,834.7813 1902.6094,835.0469 Q1902.875,835.2969 1902.875,835.6406 Q1902.875,835.9844 1902.5313,836.3906 Q1902.0313,836.9688 1901.2344,837.2969 Q1900.1563,837.75 1898.8594,837.75 Q1897.3438,837.75 1896.1406,837.125 Q1895.1563,836.625 1894.4688,835.5625 Q1893.7813,834.4844 1893.7813,833.2031 L1893.7813,832.0469 Q1893.7813,830.7188 1894.3906,829.5781 Q1895.0156,828.4219 1896.1094,827.8125 Q1897.2031,827.1875 1898.4375,827.1875 Q1899.1719,827.1875 1899.8125,827.3594 Q1900.4688,827.5156 1901.0156,827.875 Z " fill="#000000"/><text fill="#000000" font-family="sans-serif" font-size="14" lengthAdjust="spacing" textLength="67" x="1918.75" y="837.7969">Promocion</text><line style="stroke:#181818;stroke-width:0.5;" x1="1830" x2="2042" y1="848" y2="848"/><rect fill="none" height="6" style="stroke:#C82930;stroke-width:1.0;" width="6" x="1837" y="859.8105"/><text fill="#000000" font-family="sans-serif" font-size="14" lengthAdjust="spacing" textLength="113" x="1849" y="867.1074">double descuento</text><rect fill="none" height="6" style="stroke:#C82930;stroke-width:1.0;" width="6" x="1837" y="878.4316"/><text fill="#000000" font-family="sans-serif" font-size="14" lengthAdjust="spacing" textLength="101" x="1849" y="885.7285">Date fechaInicio</text><rect fill="none" height="6" style="stroke:#C82930;stroke-width:1.0;" width="6" x="1837" y="897.0527"/><text fill="#000000" font-family="sans-serif" font-size="14" lengthAdjust="spacing" textLength="89" x="1849" y="904.3496">Date fechaFin</text><line style="stroke:#181818;stroke-width:0.5;" x1="1830" x2="2042" y1="911.8633" y2="911.8633"/><ellipse cx="1840" cy="926.6738" fill="#84BE84" rx="3" ry="3" style="stroke:#038048;stroke-width:1.0;"/><text fill="#000000" font-family="sans-serif" font-size="14" lengthAdjust="spacing" textLength="145" x="1849" y="930.9707">getDescuento() double</text><ellipse cx="1840" cy="945.2949" fill="#84BE84" rx="3" ry="3" style="stroke:#038048;stroke-width:1.0;"/><text fill="#000000" font-family="sans-serif" font-size="14" lengthAdjust="spacing" textLength="188" x="1849" y="949.5918">esValida(Date fecha) boolean</text></g><!--class Reserva--><g id="elem_Reserva"><rect codeLine="31" fill="#F1F1F1" height="252.832" id="Reserva" rx="2.5" ry="2.5" style="stroke:#181818;stroke-width:0.5;" width="275" x="1940.5" y="7"/><ellipse cx="2047.25" cy="23" fill="#ADD1B2" rx="11" ry="11" style="stroke:#181818;stroke-width:1.0;"/><path d="M2050.0156,18.875 Q2050.1719,18.6563 2050.3594,18.5469 Q2050.5469,18.4375 2050.7656,18.4375 Q2051.1406,18.4375 2051.375,18.7031 Q2051.6094,18.9531 2051.6094,19.5625 L2051.6094,21.0156 Q2051.6094,21.625 2051.375,21.8906 Q2051.1406,22.1563 2050.7656,22.1563 Q2050.4219,22.1563 2050.2188,21.9531 Q2050.0156,21.7656 2049.9063,21.25 Q2049.8594,20.8906 2049.6719,20.7031 Q2049.3438,20.3281 2048.7344,20.1094 Q2048.125,19.8906 2047.5,19.8906 Q2046.7344,19.8906 2046.0938,20.2188 Q2045.4688,20.5469 2044.9688,21.2969 Q2044.4844,22.0469 2044.4844,23.0781 L2044.4844,24.1719 Q2044.4844,25.4063 2045.375,26.2344 Q2046.2656,27.0469 2047.8594,27.0469 Q2048.7969,27.0469 2049.4531,26.7969 Q2049.8438,26.6406 2050.2656,26.2031 Q2050.5313,25.9375 2050.6719,25.8594 Q2050.8281,25.7813 2051.0313,25.7813 Q2051.3594,25.7813 2051.6094,26.0469 Q2051.875,26.2969 2051.875,26.6406 Q2051.875,26.9844 2051.5313,27.3906 Q2051.0313,27.9688 2050.2344,28.2969 Q2049.1563,28.75 2047.8594,28.75 Q2046.3438,28.75 2045.1406,28.125 Q2044.1563,27.625 2043.4688,26.5625 Q2042.7813,25.4844 2042.7813,24.2031 L2042.7813,23.0469 Q2042.7813,21.7188 2043.3906,20.5781 Q2044.0156,19.4219 2045.1094,18.8125 Q2046.2031,18.1875 2047.4375,18.1875 Q2048.1719,18.1875 2048.8125,18.3594 Q2049.4688,18.5156 2050.0156,18.875 Z " fill="#000000"/><text fill="#000000" font-family="sans-serif" font-size="14" lengthAdjust="spacing" textLength="53" x="2067.75" y="28.7969">Reserva</text><line style="stroke:#181818;stroke-width:0.5;" x1="1941.5" x2="2214.5" y1="39" y2="39"/><rect fill="none" height="6" style="stroke:#C82930;stroke-width:1.0;" width="6" x="1948.5" y="50.8105"/><text fill="#000000" font-family="sans-serif" font-size="14" lengthAdjust="spacing" textLength="135" x="1960.5" y="58.1074">Habitacion habitacion</text><rect fill="none" height="6" style="stroke:#C82930;stroke-width:1.0;" width="6" x="1948.5" y="69.4316"/><text fill="#000000" font-family="sans-serif" font-size="14" lengthAdjust="spacing" textLength="89" x="1960.5" y="76.7285">Cliente cliente</text><rect fill="none" height="6" style="stroke:#C82930;stroke-width:1.0;" width="6" x="1948.5" y="88.0527"/><text fill="#000000" font-family="sans-serif" font-size="14" lengthAdjust="spacing" textLength="101" x="1960.5" y="95.3496">Date fechaInicio</text><rect fill="none" height="6" style="stroke:#C82930;stroke-width:1.0;" width="6" x="1948.5" y="106.6738"/><text fill="#000000" font-family="sans-serif" font-size="14" lengthAdjust="spacing" textLength="89" x="1960.5" y="113.9707">Date fechaFin</text><rect fill="none" height="6" style="stroke:#C82930;stroke-width:1.0;" width="6" x="1948.5" y="125.2949"/><text fill="#000000" font-family="sans-serif" font-size="14" lengthAdjust="spacing" textLength="249" x="1960.5" y="132.5918">PoliticaCancelacion politicaCancelacion</text><rect fill="none" height="6" style="stroke:#C82930;stroke-width:1.0;" width="6" x="1948.5" y="143.916"/><text fill="#000000" font-family="sans-serif" font-size="14" lengthAdjust="spacing" textLength="137" x="1960.5" y="151.2129">Promocion promocion</text><line style="stroke:#181818;stroke-width:0.5;" x1="1941.5" x2="2214.5" y1="158.7266" y2="158.7266"/><ellipse cx="1951.5" cy="173.5371" fill="#84BE84" rx="3" ry="3" style="stroke:#038048;stroke-width:1.0;"/><text fill="#000000" font-family="sans-serif" font-size="14" lengthAdjust="spacing" textLength="166" x="1960.5" y="177.834">getHabitacion() Habitacion</text><ellipse cx="1951.5" cy="192.1582" fill="#84BE84" rx="3" ry="3" style="stroke:#038048;stroke-width:1.0;"/><text fill="#000000" font-family="sans-serif" font-size="14" lengthAdjust="spacing" textLength="122" x="1960.5" y="196.4551">getCliente() Cliente</text><ellipse cx="1951.5" cy="210.7793" fill="#84BE84" rx="3" ry="3" style="stroke:#038048;stroke-width:1.0;"/><text fill="#000000" font-family="sans-serif" font-size="14" lengthAdjust="spacing" textLength="136" x="1960.5" y="215.0762">getFechaInicio() Date</text><ellipse cx="1951.5" cy="229.4004" fill="#84BE84" rx="3" ry="3" style="stroke:#038048;stroke-width:1.0;"/><text fill="#000000" font-family="sans-serif" font-size="14" lengthAdjust="spacing" textLength="124" x="1960.5" y="233.6973">getFechaFin() Date</text><ellipse cx="1951.5" cy="248.0215" fill="#84BE84" rx="3" ry="3" style="stroke:#038048;stroke-width:1.0;"/><text fill="#000000" font-family="sans-serif" font-size="14" lengthAdjust="spacing" textLength="119" x="1960.5" y="252.3184">cancelar() boolean</text></g><!--class Cliente--><g id="elem_Cliente"><rect codeLine="45" fill="#F1F1F1" height="159.7266" id="Cliente" rx="2.5" ry="2.5" style="stroke:#181818;stroke-width:0.5;" width="153" x="2144.5" y="348"/><ellipse cx="2194.75" cy="364" fill="#ADD1B2" rx="11" ry="11" style="stroke:#181818;stroke-width:1.0;"/><path d="M2197.5156,359.875 Q2197.6719,359.6563 2197.8594,359.5469 Q2198.0469,359.4375 2198.2656,359.4375 Q2198.6406,359.4375 2198.875,359.7031 Q2199.1094,359.9531 2199.1094,360.5625 L2199.1094,362.0156 Q2199.1094,362.625 2198.875,362.8906 Q2198.6406,363.1563 2198.2656,363.1563 Q2197.9219,363.1563 2197.7188,362.9531 Q2197.5156,362.7656 2197.4063,362.25 Q2197.3594,361.8906 2197.1719,361.7031 Q2196.8438,361.3281 2196.2344,361.1094 Q2195.625,360.8906 2195,360.8906 Q2194.2344,360.8906 2193.5938,361.2188 Q2192.9688,361.5469 2192.4688,362.2969 Q2191.9844,363.0469 2191.9844,364.0781 L2191.9844,365.1719 Q2191.9844,366.4063 2192.875,367.2344 Q2193.7656,368.0469 2195.3594,368.0469 Q2196.2969,368.0469 2196.9531,367.7969 Q2197.3438,367.6406 2197.7656,367.2031 Q2198.0313,366.9375 2198.1719,366.8594 Q2198.3281,366.7813 2198.5313,366.7813 Q2198.8594,366.7813 2199.1094,367.0469 Q2199.375,367.2969 2199.375,367.6406 Q2199.375,367.9844 2199.0313,368.3906 Q2198.5313,368.9688 2197.7344,369.2969 Q2196.6563,369.75 2195.3594,369.75 Q2193.8438,369.75 2192.6406,369.125 Q2191.6563,368.625 2190.9688,367.5625 Q2190.2813,366.4844 2190.2813,365.2031 L2190.2813,364.0469 Q2190.2813,362.7188 2190.8906,361.5781 Q2191.5156,360.4219 2192.6094,359.8125 Q2193.7031,359.1875 2194.9375,359.1875 Q2195.6719,359.1875 2196.3125,359.3594 Q2196.9688,359.5156 2197.5156,359.875 Z " fill="#000000"/><text fill="#000000" font-family="sans-serif" font-size="14" lengthAdjust="spacing" textLength="44" x="2215.25" y="369.7969">Cliente</text><line style="stroke:#181818;stroke-width:0.5;" x1="2145.5" x2="2296.5" y1="380" y2="380"/><rect fill="none" height="6" style="stroke:#C82930;stroke-width:1.0;" width="6" x="2152.5" y="391.8105"/><text fill="#000000" font-family="sans-serif" font-size="14" lengthAdjust="spacing" textLength="89" x="2164.5" y="399.1074">String nombre</text><rect fill="none" height="6" style="stroke:#C82930;stroke-width:1.0;" width="6" x="2152.5" y="410.4316"/><text fill="#000000" font-family="sans-serif" font-size="14" lengthAdjust="spacing" textLength="74" x="2164.5" y="417.7285">String email</text><rect fill="none" height="6" style="stroke:#C82930;stroke-width:1.0;" width="6" x="2152.5" y="429.0527"/><text fill="#000000" font-family="sans-serif" font-size="14" lengthAdjust="spacing" textLength="92" x="2164.5" y="436.3496">String telefono</text><line style="stroke:#181818;stroke-width:0.5;" x1="2145.5" x2="2296.5" y1="443.8633" y2="443.8633"/><ellipse cx="2155.5" cy="458.6738" fill="#84BE84" rx="3" ry="3" style="stroke:#038048;stroke-width:1.0;"/><text fill="#000000" font-family="sans-serif" font-size="14" lengthAdjust="spacing" textLength="120" x="2164.5" y="462.9707">getNombre() String</text><ellipse cx="2155.5" cy="477.2949" fill="#84BE84" rx="3" ry="3" style="stroke:#038048;stroke-width:1.0;"/><text fill="#000000" font-family="sans-serif" font-size="14" lengthAdjust="spacing" textLength="105" x="2164.5" y="481.5918">getEmail() String</text><ellipse cx="2155.5" cy="495.916" fill="#84BE84" rx="3" ry="3" style="stroke:#038048;stroke-width:1.0;"/><text fill="#000000" font-family="sans-serif" font-size="14" lengthAdjust="spacing" textLength="127" x="2164.5" y="500.2129">getTelefono() String</text></g><!--class PersonalLimpieza--><g id="elem_PersonalLimpieza"><rect codeLine="54" fill="#F1F1F1" height="159.7266" id="PersonalLimpieza" rx="2.5" ry="2.5" style="stroke:#181818;stroke-width:0.5;" width="319" x="1560.5" y="53.5"/><ellipse cx="1660.25" cy="69.5" fill="#ADD1B2" rx="11" ry="11" style="stroke:#181818;stroke-width:1.0;"/><path d="M1663.0156,65.375 Q1663.1719,65.1563 1663.3594,65.0469 Q1663.5469,64.9375 1663.7656,64.9375 Q1664.1406,64.9375 1664.375,65.2031 Q1664.6094,65.4531 1664.6094,66.0625 L1664.6094,67.5156 Q1664.6094,68.125 1664.375,68.3906 Q1664.1406,68.6563 1663.7656,68.6563 Q1663.4219,68.6563 1663.2188,68.4531 Q1663.0156,68.2656 1662.9063,67.75 Q1662.8594,67.3906 1662.6719,67.2031 Q1662.3438,66.8281 1661.7344,66.6094 Q1661.125,66.3906 1660.5,66.3906 Q1659.7344,66.3906 1659.0938,66.7188 Q1658.4688,67.0469 1657.9688,67.7969 Q1657.4844,68.5469 1657.4844,69.5781 L1657.4844,70.6719 Q1657.4844,71.9063 1658.375,72.7344 Q1659.2656,73.5469 1660.8594,73.5469 Q1661.7969,73.5469 1662.4531,73.2969 Q1662.8438,73.1406 1663.2656,72.7031 Q1663.5313,72.4375 1663.6719,72.3594 Q1663.8281,72.2813 1664.0313,72.2813 Q1664.3594,72.2813 1664.6094,72.5469 Q1664.875,72.7969 1664.875,73.1406 Q1664.875,73.4844 1664.5313,73.8906 Q1664.0313,74.4688 1663.2344,74.7969 Q1662.1563,75.25 1660.8594,75.25 Q1659.3438,75.25 1658.1406,74.625 Q1657.1563,74.125 1656.4688,73.0625 Q1655.7813,71.9844 1655.7813,70.7031 L1655.7813,69.5469 Q1655.7813,68.2188 1656.3906,67.0781 Q1657.0156,65.9219 1658.1094,65.3125 Q1659.2031,64.6875 1660.4375,64.6875 Q1661.1719,64.6875 1661.8125,64.8594 Q1662.4688,65.0156 1663.0156,65.375 Z " fill="#000000"/><text fill="#000000" font-family="sans-serif" font-size="14" lengthAdjust="spacing" textLength="111" x="1680.75" y="75.2969">PersonalLimpieza</text><line style="stroke:#181818;stroke-width:0.5;" x1="1561.5" x2="1878.5" y1="85.5" y2="85.5"/><rect fill="none" height="6" style="stroke:#C82930;stroke-width:1.0;" width="6" x="1568.5" y="97.3105"/><text fill="#000000" font-family="sans-serif" font-size="14" lengthAdjust="spacing" textLength="89" x="1580.5" y="104.6074">String nombre</text><rect fill="none" height="6" style="stroke:#C82930;stroke-width:1.0;" width="6" x="1568.5" y="115.9316"/><text fill="#000000" font-family="sans-serif" font-size="14" lengthAdjust="spacing" textLength="254" x="1580.5" y="123.2285">List~Habitacion~ habitacionesAsignadas</text><line style="stroke:#181818;stroke-width:0.5;" x1="1561.5" x2="1878.5" y1="130.7422" y2="130.7422"/><ellipse cx="1571.5" cy="145.5527" fill="#84BE84" rx="3" ry="3" style="stroke:#038048;stroke-width:1.0;"/><text fill="#000000" font-family="sans-serif" font-size="14" lengthAdjust="spacing" textLength="120" x="1580.5" y="149.8496">getNombre() String</text><ellipse cx="1571.5" cy="164.1738" fill="#84BE84" rx="3" ry="3" style="stroke:#038048;stroke-width:1.0;"/><text fill="#000000" font-family="sans-serif" font-size="14" lengthAdjust="spacing" textLength="288" x="1580.5" y="168.4707">asignarHabitacion(Habitacion habitacion) void</text><ellipse cx="1571.5" cy="182.7949" fill="#84BE84" rx="3" ry="3" style="stroke:#038048;stroke-width:1.0;"/><text fill="#000000" font-family="sans-serif" font-size="14" lengthAdjust="spacing" textLength="293" x="1580.5" y="187.0918">removerHabitacion(Habitacion habitacion) void</text><ellipse cx="1571.5" cy="201.416" fill="#84BE84" rx="3" ry="3" style="stroke:#038048;stroke-width:1.0;"/><text fill="#000000" font-family="sans-serif" font-size="14" lengthAdjust="spacing" textLength="285" x="1580.5" y="205.7129">getHabitacionesAsignadas() List~Habitacion~</text></g><!--class PoliticaCancelacion--><g id="elem_PoliticaCancelacion"><rect codeLine="64" fill="#F1F1F1" height="85.2422" id="PoliticaCancelacion" rx="2.5" ry="2.5" style="stroke:#181818;stroke-width:0.5;" width="316" x="424" y="385.5"/><ellipse cx="516.25" cy="401.5" fill="#B4A7E5" rx="11" ry="11" style="stroke:#181818;stroke-width:1.0;"/><path d="M517.2031,398.1406 L517.2031,404.7969 L518.9219,404.7969 Q519.5313,404.7969 519.7969,405.0313 Q520.0625,405.2656 520.0625,405.6563 Q520.0625,406.0313 519.7969,406.2656 Q519.5313,406.5 518.9219,406.5 L513.7813,406.5 Q513.1719,406.5 512.9063,406.2656 Q512.6406,406.0313 512.6406,405.6406 Q512.6406,405.2656 512.9063,405.0313 Q513.1719,404.7969 513.7813,404.7969 L515.5,404.7969 L515.5,398.1406 L513.7813,398.1406 Q513.1719,398.1406 512.9063,397.9063 Q512.6406,397.6719 512.6406,397.2813 Q512.6406,396.9063 512.9063,396.6719 Q513.1719,396.4375 513.7813,396.4375 L518.9219,396.4375 Q519.5313,396.4375 519.7969,396.6719 Q520.0625,396.9063 520.0625,397.2813 Q520.0625,397.6719 519.7969,397.9063 Q519.5313,398.1406 518.9219,398.1406 L517.2031,398.1406 Z " fill="#000000"/><text fill="#000000" font-family="sans-serif" font-size="14" font-style="italic" lengthAdjust="spacing" textLength="123" x="536.75" y="407.2969">PoliticaCancelacion</text><line style="stroke:#181818;stroke-width:0.5;" x1="425" x2="739" y1="417.5" y2="417.5"/><line style="stroke:#181818;stroke-width:0.5;" x1="425" x2="739" y1="425.5" y2="425.5"/><ellipse cx="435" cy="440.3105" fill="#84BE84" rx="3" ry="3" style="stroke:#038048;stroke-width:1.0;"/><text fill="#000000" font-family="sans-serif" font-size="14" lengthAdjust="spacing" textLength="267" x="444" y="444.6074">puedeCancelar(Reserva reserva) boolean</text><ellipse cx="435" cy="458.9316" fill="#84BE84" rx="3" ry="3" style="stroke:#038048;stroke-width:1.0;"/><text fill="#000000" font-family="sans-serif" font-size="14" lengthAdjust="spacing" textLength="290" x="444" y="463.2285">calcularPenalizacion(Reserva reserva) double</text></g><!--class PoliticaCancelacionFlexible--><g id="elem_PoliticaCancelacionFlexible"><rect codeLine="69" fill="#F1F1F1" height="85.2422" id="PoliticaCancelacionFlexible" rx="2.5" ry="2.5" style="stroke:#181818;stroke-width:0.5;" width="316" x="358" y="633.5"/><ellipse cx="426.25" cy="649.5" fill="#ADD1B2" rx="11" ry="11" style="stroke:#181818;stroke-width:1.0;"/><path d="M429.0156,645.375 Q429.1719,645.1563 429.3594,645.0469 Q429.5469,644.9375 429.7656,644.9375 Q430.1406,644.9375 430.375,645.2031 Q430.6094,645.4531 430.6094,646.0625 L430.6094,647.5156 Q430.6094,648.125 430.375,648.3906 Q430.1406,648.6563 429.7656,648.6563 Q429.4219,648.6563 429.2188,648.4531 Q429.0156,648.2656 428.9063,647.75 Q428.8594,647.3906 428.6719,647.2031 Q428.3438,646.8281 427.7344,646.6094 Q427.125,646.3906 426.5,646.3906 Q425.7344,646.3906 425.0938,646.7188 Q424.4688,647.0469 423.9688,647.7969 Q423.4844,648.5469 423.4844,649.5781 L423.4844,650.6719 Q423.4844,651.9063 424.375,652.7344 Q425.2656,653.5469 426.8594,653.5469 Q427.7969,653.5469 428.4531,653.2969 Q428.8438,653.1406 429.2656,652.7031 Q429.5313,652.4375 429.6719,652.3594 Q429.8281,652.2813 430.0313,652.2813 Q430.3594,652.2813 430.6094,652.5469 Q430.875,652.7969 430.875,653.1406 Q430.875,653.4844 430.5313,653.8906 Q430.0313,654.4688 429.2344,654.7969 Q428.1563,655.25 426.8594,655.25 Q425.3438,655.25 424.1406,654.625 Q423.1563,654.125 422.4688,653.0625 Q421.7813,651.9844 421.7813,650.7031 L421.7813,649.5469 Q421.7813,648.2188 422.3906,647.0781 Q423.0156,645.9219 424.1094,645.3125 Q425.2031,644.6875 426.4375,644.6875 Q427.1719,644.6875 427.8125,644.8594 Q428.4688,645.0156 429.0156,645.375 Z " fill="#000000"/><text fill="#000000" font-family="sans-serif" font-size="14" lengthAdjust="spacing" textLength="171" x="446.75" y="655.2969">PoliticaCancelacionFlexible</text><line style="stroke:#181818;stroke-width:0.5;" x1="359" x2="673" y1="665.5" y2="665.5"/><line style="stroke:#181818;stroke-width:0.5;" x1="359" x2="673" y1="673.5" y2="673.5"/><ellipse cx="369" cy="688.3105" fill="#84BE84" rx="3" ry="3" style="stroke:#038048;stroke-width:1.0;"/><text fill="#000000" font-family="sans-serif" font-size="14" lengthAdjust="spacing" textLength="267" x="378" y="692.6074">puedeCancelar(Reserva reserva) boolean</text><ellipse cx="369" cy="706.9316" fill="#84BE84" rx="3" ry="3" style="stroke:#038048;stroke-width:1.0;"/><text fill="#000000" font-family="sans-serif" font-size="14" lengthAdjust="spacing" textLength="290" x="378" y="711.2285">calcularPenalizacion(Reserva reserva) double</text></g><!--class PoliticaCancelacionModerada--><g id="elem_PoliticaCancelacionModerada"><rect codeLine="74" fill="#F1F1F1" height="85.2422" id="PoliticaCancelacionModerada" rx="2.5" ry="2.5" style="stroke:#181818;stroke-width:0.5;" width="316" x="709" y="633.5"/><ellipse cx="769.25" cy="649.5" fill="#ADD1B2" rx="11" ry="11" style="stroke:#181818;stroke-width:1.0;"/><path d="M772.0156,645.375 Q772.1719,645.1563 772.3594,645.0469 Q772.5469,644.9375 772.7656,644.9375 Q773.1406,644.9375 773.375,645.2031 Q773.6094,645.4531 773.6094,646.0625 L773.6094,647.5156 Q773.6094,648.125 773.375,648.3906 Q773.1406,648.6563 772.7656,648.6563 Q772.4219,648.6563 772.2188,648.4531 Q772.0156,648.2656 771.9063,647.75 Q771.8594,647.3906 771.6719,647.2031 Q771.3438,646.8281 770.7344,646.6094 Q770.125,646.3906 769.5,646.3906 Q768.7344,646.3906 768.0938,646.7188 Q767.4688,647.0469 766.9688,647.7969 Q766.4844,648.5469 766.4844,649.5781 L766.4844,650.6719 Q766.4844,651.9063 767.375,652.7344 Q768.2656,653.5469 769.8594,653.5469 Q770.7969,653.5469 771.4531,653.2969 Q771.8438,653.1406 772.2656,652.7031 Q772.5313,652.4375 772.6719,652.3594 Q772.8281,652.2813 773.0313,652.2813 Q773.3594,652.2813 773.6094,652.5469 Q773.875,652.7969 773.875,653.1406 Q773.875,653.4844 773.5313,653.8906 Q773.0313,654.4688 772.2344,654.7969 Q771.1563,655.25 769.8594,655.25 Q768.3438,655.25 767.1406,654.625 Q766.1563,654.125 765.4688,653.0625 Q764.7813,651.9844 764.7813,650.7031 L764.7813,649.5469 Q764.7813,648.2188 765.3906,647.0781 Q766.0156,645.9219 767.1094,645.3125 Q768.2031,644.6875 769.4375,644.6875 Q770.1719,644.6875 770.8125,644.8594 Q771.4688,645.0156 772.0156,645.375 Z " fill="#000000"/><text fill="#000000" font-family="sans-serif" font-size="14" lengthAdjust="spacing" textLength="187" x="789.75" y="655.2969">PoliticaCancelacionModerada</text><line style="stroke:#181818;stroke-width:0.5;" x1="710" x2="1024" y1="665.5" y2="665.5"/><line style="stroke:#181818;stroke-width:0.5;" x1="710" x2="1024" y1="673.5" y2="673.5"/><ellipse cx="720" cy="688.3105" fill="#84BE84" rx="3" ry="3" style="stroke:#038048;stroke-width:1.0;"/><text fill="#000000" font-family="sans-serif" font-size="14" lengthAdjust="spacing" textLength="267" x="729" y="692.6074">puedeCancelar(Reserva reserva) boolean</text><ellipse cx="720" cy="706.9316" fill="#84BE84" rx="3" ry="3" style="stroke:#038048;stroke-width:1.0;"/><text fill="#000000" font-family="sans-serif" font-size="14" lengthAdjust="spacing" textLength="290" x="729" y="711.2285">calcularPenalizacion(Reserva reserva) double</text></g><!--class PoliticaCancelacionEstricta--><g id="elem_PoliticaCancelacionEstricta"><rect codeLine="79" fill="#F1F1F1" height="85.2422" id="PoliticaCancelacionEstricta" rx="2.5" ry="2.5" style="stroke:#181818;stroke-width:0.5;" width="316" x="7" y="633.5"/><ellipse cx="75.75" cy="649.5" fill="#ADD1B2" rx="11" ry="11" style="stroke:#181818;stroke-width:1.0;"/><path d="M78.5156,645.375 Q78.6719,645.1563 78.8594,645.0469 Q79.0469,644.9375 79.2656,644.9375 Q79.6406,644.9375 79.875,645.2031 Q80.1094,645.4531 80.1094,646.0625 L80.1094,647.5156 Q80.1094,648.125 79.875,648.3906 Q79.6406,648.6563 79.2656,648.6563 Q78.9219,648.6563 78.7188,648.4531 Q78.5156,648.2656 78.4063,647.75 Q78.3594,647.3906 78.1719,647.2031 Q77.8438,646.8281 77.2344,646.6094 Q76.625,646.3906 76,646.3906 Q75.2344,646.3906 74.5938,646.7188 Q73.9688,647.0469 73.4688,647.7969 Q72.9844,648.5469 72.9844,649.5781 L72.9844,650.6719 Q72.9844,651.9063 73.875,652.7344 Q74.7656,653.5469 76.3594,653.5469 Q77.2969,653.5469 77.9531,653.2969 Q78.3438,653.1406 78.7656,652.7031 Q79.0313,652.4375 79.1719,652.3594 Q79.3281,652.2813 79.5313,652.2813 Q79.8594,652.2813 80.1094,652.5469 Q80.375,652.7969 80.375,653.1406 Q80.375,653.4844 80.0313,653.8906 Q79.5313,654.4688 78.7344,654.7969 Q77.6563,655.25 76.3594,655.25 Q74.8438,655.25 73.6406,654.625 Q72.6563,654.125 71.9688,653.0625 Q71.2813,651.9844 71.2813,650.7031 L71.2813,649.5469 Q71.2813,648.2188 71.8906,647.0781 Q72.5156,645.9219 73.6094,645.3125 Q74.7031,644.6875 75.9375,644.6875 Q76.6719,644.6875 77.3125,644.8594 Q77.9688,645.0156 78.5156,645.375 Z " fill="#000000"/><text fill="#000000" font-family="sans-serif" font-size="14" lengthAdjust="spacing" textLength="170" x="96.25" y="655.2969">PoliticaCancelacionEstricta</text><line style="stroke:#181818;stroke-width:0.5;" x1="8" x2="322" y1="665.5" y2="665.5"/><line style="stroke:#181818;stroke-width:0.5;" x1="8" x2="322" y1="673.5" y2="673.5"/><ellipse cx="18" cy="688.3105" fill="#84BE84" rx="3" ry="3" style="stroke:#038048;stroke-width:1.0;"/><text fill="#000000" font-family="sans-serif" font-size="14" lengthAdjust="spacing" textLength="267" x="27" y="692.6074">puedeCancelar(Reserva reserva) boolean</text><ellipse cx="18" cy="706.9316" fill="#84BE84" rx="3" ry="3" style="stroke:#038048;stroke-width:1.0;"/><text fill="#000000" font-family="sans-serif" font-size="14" lengthAdjust="spacing" textLength="290" x="27" y="711.2285">calcularPenalizacion(Reserva reserva) double</text></g><!--class CanalNotificacion--><g id="elem_CanalNotificacion"><rect codeLine="84" fill="#F1F1F1" height="66.6211" id="CanalNotificacion" rx="2.5" ry="2.5" style="stroke:#181818;stroke-width:0.5;" width="271" x="2840.5" y="853"/><ellipse cx="2916.75" cy="869" fill="#B4A7E5" rx="11" ry="11" style="stroke:#181818;stroke-width:1.0;"/><path d="M2917.7031,865.6406 L2917.7031,872.2969 L2919.4219,872.2969 Q2920.0313,872.2969 2920.2969,872.5313 Q2920.5625,872.7656 2920.5625,873.1563 Q2920.5625,873.5313 2920.2969,873.7656 Q2920.0313,874 2919.4219,874 L2914.2813,874 Q2913.6719,874 2913.4063,873.7656 Q2913.1406,873.5313 2913.1406,873.1406 Q2913.1406,872.7656 2913.4063,872.5313 Q2913.6719,872.2969 2914.2813,872.2969 L2916,872.2969 L2916,865.6406 L2914.2813,865.6406 Q2913.6719,865.6406 2913.4063,865.4063 Q2913.1406,865.1719 2913.1406,864.7813 Q2913.1406,864.4063 2913.4063,864.1719 Q2913.6719,863.9375 2914.2813,863.9375 L2919.4219,863.9375 Q2920.0313,863.9375 2920.2969,864.1719 Q2920.5625,864.4063 2920.5625,864.7813 Q2920.5625,865.1719 2920.2969,865.4063 Q2920.0313,865.6406 2919.4219,865.6406 L2917.7031,865.6406 Z " fill="#000000"/><text fill="#000000" font-family="sans-serif" font-size="14" font-style="italic" lengthAdjust="spacing" textLength="110" x="2937.25" y="874.7969">CanalNotificacion</text><line style="stroke:#181818;stroke-width:0.5;" x1="2841.5" x2="3110.5" y1="885" y2="885"/><line style="stroke:#181818;stroke-width:0.5;" x1="2841.5" x2="3110.5" y1="893" y2="893"/><ellipse cx="2851.5" cy="907.8105" fill="#84BE84" rx="3" ry="3" style="stroke:#038048;stroke-width:1.0;"/><text fill="#000000" font-family="sans-serif" font-size="14" lengthAdjust="spacing" textLength="245" x="2860.5" y="912.1074">enviarNotificacion(String mensaje) void</text></g><!--class EnviadorCorreo--><g id="elem_EnviadorCorreo"><rect codeLine="88" fill="#F1F1F1" height="66.6211" id="EnviadorCorreo" rx="2.5" ry="2.5" style="stroke:#181818;stroke-width:0.5;" width="271" x="2534.5" y="1017"/><ellipse cx="2615.75" cy="1033" fill="#ADD1B2" rx="11" ry="11" style="stroke:#181818;stroke-width:1.0;"/><path d="M2618.5156,1028.875 Q2618.6719,1028.6563 2618.8594,1028.5469 Q2619.0469,1028.4375 2619.2656,1028.4375 Q2619.6406,1028.4375 2619.875,1028.7031 Q2620.1094,1028.9531 2620.1094,1029.5625 L2620.1094,1031.0156 Q2620.1094,1031.625 2619.875,1031.8906 Q2619.6406,1032.1563 2619.2656,1032.1563 Q2618.9219,1032.1563 2618.7188,1031.9531 Q2618.5156,1031.7656 2618.4063,1031.25 Q2618.3594,1030.8906 2618.1719,1030.7031 Q2617.8438,1030.3281 2617.2344,1030.1094 Q2616.625,1029.8906 2616,1029.8906 Q2615.2344,1029.8906 2614.5938,1030.2188 Q2613.9688,1030.5469 2613.4688,1031.2969 Q2612.9844,1032.0469 2612.9844,1033.0781 L2612.9844,1034.1719 Q2612.9844,1035.4063 2613.875,1036.2344 Q2614.7656,1037.0469 2616.3594,1037.0469 Q2617.2969,1037.0469 2617.9531,1036.7969 Q2618.3438,1036.6406 2618.7656,1036.2031 Q2619.0313,1035.9375 2619.1719,1035.8594 Q2619.3281,1035.7813 2619.5313,1035.7813 Q2619.8594,1035.7813 2620.1094,1036.0469 Q2620.375,1036.2969 2620.375,1036.6406 Q2620.375,1036.9844 2620.0313,1037.3906 Q2619.5313,1037.9688 2618.7344,1038.2969 Q2617.6563,1038.75 2616.3594,1038.75 Q2614.8438,1038.75 2613.6406,1038.125 Q2612.6563,1037.625 2611.9688,1036.5625 Q2611.2813,1035.4844 2611.2813,1034.2031 L2611.2813,1033.0469 Q2611.2813,1031.7188 2611.8906,1030.5781 Q2612.5156,1029.4219 2613.6094,1028.8125 Q2614.7031,1028.1875 2615.9375,1028.1875 Q2616.6719,1028.1875 2617.3125,1028.3594 Q2617.9688,1028.5156 2618.5156,1028.875 Z " fill="#000000"/><text fill="#000000" font-family="sans-serif" font-size="14" lengthAdjust="spacing" textLength="100" x="2636.25" y="1038.7969">EnviadorCorreo</text><line style="stroke:#181818;stroke-width:0.5;" x1="2535.5" x2="2804.5" y1="1049" y2="1049"/><line style="stroke:#181818;stroke-width:0.5;" x1="2535.5" x2="2804.5" y1="1057" y2="1057"/><ellipse cx="2545.5" cy="1071.8105" fill="#84BE84" rx="3" ry="3" style="stroke:#038048;stroke-width:1.0;"/><text fill="#000000" font-family="sans-serif" font-size="14" lengthAdjust="spacing" textLength="245" x="2554.5" y="1076.1074">enviarNotificacion(String mensaje) void</text></g><!--class EnviadorSMS--><g id="elem_EnviadorSMS"><rect codeLine="92" fill="#F1F1F1" height="66.6211" id="EnviadorSMS" rx="2.5" ry="2.5" style="stroke:#181818;stroke-width:0.5;" width="271" x="2840.5" y="1017"/><ellipse cx="2929.25" cy="1033" fill="#ADD1B2" rx="11" ry="11" style="stroke:#181818;stroke-width:1.0;"/><path d="M2932.0156,1028.875 Q2932.1719,1028.6563 2932.3594,1028.5469 Q2932.5469,1028.4375 2932.7656,1028.4375 Q2933.1406,1028.4375 2933.375,1028.7031 Q2933.6094,1028.9531 2933.6094,1029.5625 L2933.6094,1031.0156 Q2933.6094,1031.625 2933.375,1031.8906 Q2933.1406,1032.1563 2932.7656,1032.1563 Q2932.4219,1032.1563 2932.2188,1031.9531 Q2932.0156,1031.7656 2931.9063,1031.25 Q2931.8594,1030.8906 2931.6719,1030.7031 Q2931.3438,1030.3281 2930.7344,1030.1094 Q2930.125,1029.8906 2929.5,1029.8906 Q2928.7344,1029.8906 2928.0938,1030.2188 Q2927.4688,1030.5469 2926.9688,1031.2969 Q2926.4844,1032.0469 2926.4844,1033.0781 L2926.4844,1034.1719 Q2926.4844,1035.4063 2927.375,1036.2344 Q2928.2656,1037.0469 2929.8594,1037.0469 Q2930.7969,1037.0469 2931.4531,1036.7969 Q2931.8438,1036.6406 2932.2656,1036.2031 Q2932.5313,1035.9375 2932.6719,1035.8594 Q2932.8281,1035.7813 2933.0313,1035.7813 Q2933.3594,1035.7813 2933.6094,1036.0469 Q2933.875,1036.2969 2933.875,1036.6406 Q2933.875,1036.9844 2933.5313,1037.3906 Q2933.0313,1037.9688 2932.2344,1038.2969 Q2931.1563,1038.75 2929.8594,1038.75 Q2928.3438,1038.75 2927.1406,1038.125 Q2926.1563,1037.625 2925.4688,1036.5625 Q2924.7813,1035.4844 2924.7813,1034.2031 L2924.7813,1033.0469 Q2924.7813,1031.7188 2925.3906,1030.5781 Q2926.0156,1029.4219 2927.1094,1028.8125 Q2928.2031,1028.1875 2929.4375,1028.1875 Q2930.1719,1028.1875 2930.8125,1028.3594 Q2931.4688,1028.5156 2932.0156,1028.875 Z " fill="#000000"/><text fill="#000000" font-family="sans-serif" font-size="14" lengthAdjust="spacing" textLength="85" x="2949.75" y="1038.7969">EnviadorSMS</text><line style="stroke:#181818;stroke-width:0.5;" x1="2841.5" x2="3110.5" y1="1049" y2="1049"/><line style="stroke:#181818;stroke-width:0.5;" x1="2841.5" x2="3110.5" y1="1057" y2="1057"/><ellipse cx="2851.5" cy="1071.8105" fill="#84BE84" rx="3" ry="3" style="stroke:#038048;stroke-width:1.0;"/><text fill="#000000" font-family="sans-serif" font-size="14" lengthAdjust="spacing" textLength="245" x="2860.5" y="1076.1074">enviarNotificacion(String mensaje) void</text></g><!--class NotificadorSlack--><g id="elem_NotificadorSlack"><rect codeLine="96" fill="#F1F1F1" height="66.6211" id="NotificadorSlack" rx="2.5" ry="2.5" style="stroke:#181818;stroke-width:0.5;" width="271" x="3146.5" y="1017"/><ellipse cx="3227.25" cy="1033" fill="#ADD1B2" rx="11" ry="11" style="stroke:#181818;stroke-width:1.0;"/><path d="M3230.0156,1028.875 Q3230.1719,1028.6563 3230.3594,1028.5469 Q3230.5469,1028.4375 3230.7656,1028.4375 Q3231.1406,1028.4375 3231.375,1028.7031 Q3231.6094,1028.9531 3231.6094,1029.5625 L3231.6094,1031.0156 Q3231.6094,1031.625 3231.375,1031.8906 Q3231.1406,1032.1563 3230.7656,1032.1563 Q3230.4219,1032.1563 3230.2188,1031.9531 Q3230.0156,1031.7656 3229.9063,1031.25 Q3229.8594,1030.8906 3229.6719,1030.7031 Q3229.3438,1030.3281 3228.7344,1030.1094 Q3228.125,1029.8906 3227.5,1029.8906 Q3226.7344,1029.8906 3226.0938,1030.2188 Q3225.4688,1030.5469 3224.9688,1031.2969 Q3224.4844,1032.0469 3224.4844,1033.0781 L3224.4844,1034.1719 Q3224.4844,1035.4063 3225.375,1036.2344 Q3226.2656,1037.0469 3227.8594,1037.0469 Q3228.7969,1037.0469 3229.4531,1036.7969 Q3229.8438,1036.6406 3230.2656,1036.2031 Q3230.5313,1035.9375 3230.6719,1035.8594 Q3230.8281,1035.7813 3231.0313,1035.7813 Q3231.3594,1035.7813 3231.6094,1036.0469 Q3231.875,1036.2969 3231.875,1036.6406 Q3231.875,1036.9844 3231.5313,1037.3906 Q3231.0313,1037.9688 3230.2344,1038.2969 Q3229.1563,1038.75 3227.8594,1038.75 Q3226.3438,1038.75 3225.1406,1038.125 Q3224.1563,1037.625 3223.4688,1036.5625 Q3222.7813,1035.4844 3222.7813,1034.2031 L3222.7813,1033.0469 Q3222.7813,1031.7188 3223.3906,1030.5781 Q3224.0156,1029.4219 3225.1094,1028.8125 Q3226.2031,1028.1875 3227.4375,1028.1875 Q3228.1719,1028.1875 3228.8125,1028.3594 Q3229.4688,1028.5156 3230.0156,1028.875 Z " fill="#000000"/><text fill="#000000" font-family="sans-serif" font-size="14" lengthAdjust="spacing" textLength="101" x="3247.75" y="1038.7969">NotificadorSlack</text><line style="stroke:#181818;stroke-width:0.5;" x1="3147.5" x2="3416.5" y1="1049" y2="1049"/><line style="stroke:#181818;stroke-width:0.5;" x1="3147.5" x2="3416.5" y1="1057" y2="1057"/><ellipse cx="3157.5" cy="1071.8105" fill="#84BE84" rx="3" ry="3" style="stroke:#038048;stroke-width:1.0;"/><text fill="#000000" font-family="sans-serif" font-size="14" lengthAdjust="spacing" textLength="245" x="3166.5" y="1076.1074">enviarNotificacion(String mensaje) void</text></g><!--class NotificadorReserva--><g id="elem_NotificadorReserva"><rect codeLine="100" fill="#F1F1F1" height="122.4844" id="NotificadorReserva" rx="2.5" ry="2.5" style="stroke:#181818;stroke-width:0.5;" width="347" x="2802.5" y="615"/><ellipse cx="2911.75" cy="631" fill="#ADD1B2" rx="11" ry="11" style="stroke:#181818;stroke-width:1.0;"/><path d="M2914.5156,626.875 Q2914.6719,626.6563 2914.8594,626.5469 Q2915.0469,626.4375 2915.2656,626.4375 Q2915.6406,626.4375 2915.875,626.7031 Q2916.1094,626.9531 2916.1094,627.5625 L2916.1094,629.0156 Q2916.1094,629.625 2915.875,629.8906 Q2915.6406,630.1563 2915.2656,630.1563 Q2914.9219,630.1563 2914.7188,629.9531 Q2914.5156,629.7656 2914.4063,629.25 Q2914.3594,628.8906 2914.1719,628.7031 Q2913.8438,628.3281 2913.2344,628.1094 Q2912.625,627.8906 2912,627.8906 Q2911.2344,627.8906 2910.5938,628.2188 Q2909.9688,628.5469 2909.4688,629.2969 Q2908.9844,630.0469 2908.9844,631.0781 L2908.9844,632.1719 Q2908.9844,633.4063 2909.875,634.2344 Q2910.7656,635.0469 2912.3594,635.0469 Q2913.2969,635.0469 2913.9531,634.7969 Q2914.3438,634.6406 2914.7656,634.2031 Q2915.0313,633.9375 2915.1719,633.8594 Q2915.3281,633.7813 2915.5313,633.7813 Q2915.8594,633.7813 2916.1094,634.0469 Q2916.375,634.2969 2916.375,634.6406 Q2916.375,634.9844 2916.0313,635.3906 Q2915.5313,635.9688 2914.7344,636.2969 Q2913.6563,636.75 2912.3594,636.75 Q2910.8438,636.75 2909.6406,636.125 Q2908.6563,635.625 2907.9688,634.5625 Q2907.2813,633.4844 2907.2813,632.2031 L2907.2813,631.0469 Q2907.2813,629.7188 2907.8906,628.5781 Q2908.5156,627.4219 2909.6094,626.8125 Q2910.7031,626.1875 2911.9375,626.1875 Q2912.6719,626.1875 2913.3125,626.3594 Q2913.9688,626.5156 2914.5156,626.875 Z " fill="#000000"/><text fill="#000000" font-family="sans-serif" font-size="14" lengthAdjust="spacing" textLength="120" x="2932.25" y="636.7969">NotificadorReserva</text><line style="stroke:#181818;stroke-width:0.5;" x1="2803.5" x2="3148.5" y1="647" y2="647"/><rect fill="none" height="6" style="stroke:#C82930;stroke-width:1.0;" width="6" x="2810.5" y="658.8105"/><text fill="#000000" font-family="sans-serif" font-size="14" lengthAdjust="spacing" textLength="219" x="2822.5" y="666.1074">CanalNotificacion canalNotificacion</text><line style="stroke:#181818;stroke-width:0.5;" x1="2803.5" x2="3148.5" y1="673.6211" y2="673.6211"/><ellipse cx="2813.5" cy="688.4316" fill="#84BE84" rx="3" ry="3" style="stroke:#038048;stroke-width:1.0;"/><text fill="#000000" font-family="sans-serif" font-size="14" lengthAdjust="spacing" textLength="277" x="2822.5" y="692.7285">NotificadorReserva(CanalNotificacion canal)</text><ellipse cx="2813.5" cy="707.0527" fill="#84BE84" rx="3" ry="3" style="stroke:#038048;stroke-width:1.0;"/><text fill="#000000" font-family="sans-serif" font-size="14" lengthAdjust="spacing" textLength="321" x="2822.5" y="711.3496">notificarReservaConfirmada(Reserva reserva) void</text><ellipse cx="2813.5" cy="725.6738" fill="#84BE84" rx="3" ry="3" style="stroke:#038048;stroke-width:1.0;"/><text fill="#000000" font-family="sans-serif" font-size="14" lengthAdjust="spacing" textLength="316" x="2822.5" y="729.9707">notificarReservaCancelada(Reserva reserva) void</text></g><!--class ServicioLimpieza--><g id="elem_ServicioLimpieza"><rect codeLine="107" fill="#F1F1F1" height="66.6211" id="ServicioLimpieza" rx="2.5" ry="2.5" style="stroke:#181818;stroke-width:0.5;" width="169" x="1315.5" y="394.5"/><ellipse cx="1344.9" cy="410.5" fill="#B4A7E5" rx="11" ry="11" style="stroke:#181818;stroke-width:1.0;"/><path d="M1345.8531,407.1406 L1345.8531,413.7969 L1347.5719,413.7969 Q1348.1813,413.7969 1348.4469,414.0313 Q1348.7125,414.2656 1348.7125,414.6563 Q1348.7125,415.0313 1348.4469,415.2656 Q1348.1813,415.5 1347.5719,415.5 L1342.4313,415.5 Q1341.8219,415.5 1341.5563,415.2656 Q1341.2906,415.0313 1341.2906,414.6406 Q1341.2906,414.2656 1341.5563,414.0313 Q1341.8219,413.7969 1342.4313,413.7969 L1344.15,413.7969 L1344.15,407.1406 L1342.4313,407.1406 Q1341.8219,407.1406 1341.5563,406.9063 Q1341.2906,406.6719 1341.2906,406.2813 Q1341.2906,405.9063 1341.5563,405.6719 Q1341.8219,405.4375 1342.4313,405.4375 L1347.5719,405.4375 Q1348.1813,405.4375 1348.4469,405.6719 Q1348.7125,405.9063 1348.7125,406.2813 Q1348.7125,406.6719 1348.4469,406.9063 Q1348.1813,407.1406 1347.5719,407.1406 L1345.8531,407.1406 Z " fill="#000000"/><text fill="#000000" font-family="sans-serif" font-size="14" font-style="italic" lengthAdjust="spacing" textLength="105" x="1362.1" y="416.2969">ServicioLimpieza</text><line style="stroke:#181818;stroke-width:0.5;" x1="1316.5" x2="1483.5" y1="426.5" y2="426.5"/><line style="stroke:#181818;stroke-width:0.5;" x1="1316.5" x2="1483.5" y1="434.5" y2="434.5"/><ellipse cx="1326.5" cy="449.3105" fill="#84BE84" rx="3" ry="3" style="stroke:#038048;stroke-width:1.0;"/><text fill="#000000" font-family="sans-serif" font-size="14" lengthAdjust="spacing" textLength="143" x="1335.5" y="453.6074">solicitarLimpieza() void</text></g><!--class ServicioComida--><g id="elem_ServicioComida"><rect codeLine="111" fill="#F1F1F1" height="66.6211" id="ServicioComida" rx="2.5" ry="2.5" style="stroke:#181818;stroke-width:0.5;" width="218" x="1061" y="394.5"/><ellipse cx="1117.25" cy="410.5" fill="#B4A7E5" rx="11" ry="11" style="stroke:#181818;stroke-width:1.0;"/><path d="M1118.2031,407.1406 L1118.2031,413.7969 L1119.9219,413.7969 Q1120.5313,413.7969 1120.7969,414.0313 Q1121.0625,414.2656 1121.0625,414.6563 Q1121.0625,415.0313 1120.7969,415.2656 Q1120.5313,415.5 1119.9219,415.5 L1114.7813,415.5 Q1114.1719,415.5 1113.9063,415.2656 Q1113.6406,415.0313 1113.6406,414.6406 Q1113.6406,414.2656 1113.9063,414.0313 Q1114.1719,413.7969 1114.7813,413.7969 L1116.5,413.7969 L1116.5,407.1406 L1114.7813,407.1406 Q1114.1719,407.1406 1113.9063,406.9063 Q1113.6406,406.6719 1113.6406,406.2813 Q1113.6406,405.9063 1113.9063,405.6719 Q1114.1719,405.4375 1114.7813,405.4375 L1119.9219,405.4375 Q1120.5313,405.4375 1120.7969,405.6719 Q1121.0625,405.9063 1121.0625,406.2813 Q1121.0625,406.6719 1120.7969,406.9063 Q1120.5313,407.1406 1119.9219,407.1406 L1118.2031,407.1406 Z " fill="#000000"/><text fill="#000000" font-family="sans-serif" font-size="14" font-style="italic" lengthAdjust="spacing" textLength="97" x="1137.75" y="416.2969">ServicioComida</text><line style="stroke:#181818;stroke-width:0.5;" x1="1062" x2="1278" y1="426.5" y2="426.5"/><line style="stroke:#181818;stroke-width:0.5;" x1="1062" x2="1278" y1="434.5" y2="434.5"/><ellipse cx="1072" cy="449.3105" fill="#84BE84" rx="3" ry="3" style="stroke:#038048;stroke-width:1.0;"/><text fill="#000000" font-family="sans-serif" font-size="14" lengthAdjust="spacing" textLength="192" x="1081" y="453.6074">pedirComida(String plato) void</text></g><!--class ServicioLavanderia--><g id="elem_ServicioLavanderia"><rect codeLine="115" fill="#F1F1F1" height="66.6211" id="ServicioLavanderia" rx="2.5" ry="2.5" style="stroke:#181818;stroke-width:0.5;" width="185" x="840.5" y="394.5"/><ellipse cx="870.8" cy="410.5" fill="#B4A7E5" rx="11" ry="11" style="stroke:#181818;stroke-width:1.0;"/><path d="M871.7531,407.1406 L871.7531,413.7969 L873.4719,413.7969 Q874.0813,413.7969 874.3469,414.0313 Q874.6125,414.2656 874.6125,414.6563 Q874.6125,415.0313 874.3469,415.2656 Q874.0813,415.5 873.4719,415.5 L868.3313,415.5 Q867.7219,415.5 867.4563,415.2656 Q867.1906,415.0313 867.1906,414.6406 Q867.1906,414.2656 867.4563,414.0313 Q867.7219,413.7969 868.3313,413.7969 L870.05,413.7969 L870.05,407.1406 L868.3313,407.1406 Q867.7219,407.1406 867.4563,406.9063 Q867.1906,406.6719 867.1906,406.2813 Q867.1906,405.9063 867.4563,405.6719 Q867.7219,405.4375 868.3313,405.4375 L873.4719,405.4375 Q874.0813,405.4375 874.3469,405.6719 Q874.6125,405.9063 874.6125,406.2813 Q874.6125,406.6719 874.3469,406.9063 Q874.0813,407.1406 873.4719,407.1406 L871.7531,407.1406 Z " fill="#000000"/><text fill="#000000" font-family="sans-serif" font-size="14" font-style="italic" lengthAdjust="spacing" textLength="119" x="888.2" y="416.2969">ServicioLavanderia</text><line style="stroke:#181818;stroke-width:0.5;" x1="841.5" x2="1024.5" y1="426.5" y2="426.5"/><line style="stroke:#181818;stroke-width:0.5;" x1="841.5" x2="1024.5" y1="434.5" y2="434.5"/><ellipse cx="851.5" cy="449.3105" fill="#84BE84" rx="3" ry="3" style="stroke:#038048;stroke-width:1.0;"/><text fill="#000000" font-family="sans-serif" font-size="14" lengthAdjust="spacing" textLength="159" x="860.5" y="453.6074">solicitarLavanderia() void</text></g><!--class HabitacionEstandar--><g id="elem_HabitacionEstandar"><rect codeLine="119" fill="#F1F1F1" height="85.2422" id="HabitacionEstandar" rx="2.5" ry="2.5" style="stroke:#181818;stroke-width:0.5;" width="176" x="1313" y="633.5"/><ellipse cx="1337.45" cy="649.5" fill="#ADD1B2" rx="11" ry="11" style="stroke:#181818;stroke-width:1.0;"/><path d="M1340.2156,645.375 Q1340.3719,645.1563 1340.5594,645.0469 Q1340.7469,644.9375 1340.9656,644.9375 Q1341.3406,644.9375 1341.575,645.2031 Q1341.8094,645.4531 1341.8094,646.0625 L1341.8094,647.5156 Q1341.8094,648.125 1341.575,648.3906 Q1341.3406,648.6563 1340.9656,648.6563 Q1340.6219,648.6563 1340.4188,648.4531 Q1340.2156,648.2656 1340.1063,647.75 Q1340.0594,647.3906 1339.8719,647.2031 Q1339.5438,646.8281 1338.9344,646.6094 Q1338.325,646.3906 1337.7,646.3906 Q1336.9344,646.3906 1336.2938,646.7188 Q1335.6688,647.0469 1335.1688,647.7969 Q1334.6844,648.5469 1334.6844,649.5781 L1334.6844,650.6719 Q1334.6844,651.9063 1335.575,652.7344 Q1336.4656,653.5469 1338.0594,653.5469 Q1338.9969,653.5469 1339.6531,653.2969 Q1340.0438,653.1406 1340.4656,652.7031 Q1340.7313,652.4375 1340.8719,652.3594 Q1341.0281,652.2813 1341.2313,652.2813 Q1341.5594,652.2813 1341.8094,652.5469 Q1342.075,652.7969 1342.075,653.1406 Q1342.075,653.4844 1341.7313,653.8906 Q1341.2313,654.4688 1340.4344,654.7969 Q1339.3563,655.25 1338.0594,655.25 Q1336.5438,655.25 1335.3406,654.625 Q1334.3563,654.125 1333.6688,653.0625 Q1332.9813,651.9844 1332.9813,650.7031 L1332.9813,649.5469 Q1332.9813,648.2188 1333.5906,647.0781 Q1334.2156,645.9219 1335.3094,645.3125 Q1336.4031,644.6875 1337.6375,644.6875 Q1338.3719,644.6875 1339.0125,644.8594 Q1339.6688,645.0156 1340.2156,645.375 Z " fill="#000000"/><text fill="#000000" font-family="sans-serif" font-size="14" lengthAdjust="spacing" textLength="123" x="1353.55" y="655.2969">HabitacionEstandar</text><line style="stroke:#181818;stroke-width:0.5;" x1="1314" x2="1488" y1="665.5" y2="665.5"/><line style="stroke:#181818;stroke-width:0.5;" x1="1314" x2="1488" y1="673.5" y2="673.5"/><ellipse cx="1324" cy="688.3105" fill="#84BE84" rx="3" ry="3" style="stroke:#038048;stroke-width:1.0;"/><text fill="#000000" font-family="sans-serif" font-size="14" lengthAdjust="spacing" textLength="150" x="1333" y="692.6074">aplicarDescuento() void</text><ellipse cx="1324" cy="706.9316" fill="#84BE84" rx="3" ry="3" style="stroke:#038048;stroke-width:1.0;"/><text fill="#000000" font-family="sans-serif" font-size="14" lengthAdjust="spacing" textLength="143" x="1333" y="711.2285">solicitarLimpieza() void</text></g><!--class HabitacionSuite--><g id="elem_HabitacionSuite"><rect codeLine="124" fill="#F1F1F1" height="122.4844" id="HabitacionSuite" rx="2.5" ry="2.5" style="stroke:#181818;stroke-width:0.5;" width="218" x="1060" y="615"/><ellipse cx="1115.75" cy="631" fill="#ADD1B2" rx="11" ry="11" style="stroke:#181818;stroke-width:1.0;"/><path d="M1118.5156,626.875 Q1118.6719,626.6563 1118.8594,626.5469 Q1119.0469,626.4375 1119.2656,626.4375 Q1119.6406,626.4375 1119.875,626.7031 Q1120.1094,626.9531 1120.1094,627.5625 L1120.1094,629.0156 Q1120.1094,629.625 1119.875,629.8906 Q1119.6406,630.1563 1119.2656,630.1563 Q1118.9219,630.1563 1118.7188,629.9531 Q1118.5156,629.7656 1118.4063,629.25 Q1118.3594,628.8906 1118.1719,628.7031 Q1117.8438,628.3281 1117.2344,628.1094 Q1116.625,627.8906 1116,627.8906 Q1115.2344,627.8906 1114.5938,628.2188 Q1113.9688,628.5469 1113.4688,629.2969 Q1112.9844,630.0469 1112.9844,631.0781 L1112.9844,632.1719 Q1112.9844,633.4063 1113.875,634.2344 Q1114.7656,635.0469 1116.3594,635.0469 Q1117.2969,635.0469 1117.9531,634.7969 Q1118.3438,634.6406 1118.7656,634.2031 Q1119.0313,633.9375 1119.1719,633.8594 Q1119.3281,633.7813 1119.5313,633.7813 Q1119.8594,633.7813 1120.1094,634.0469 Q1120.375,634.2969 1120.375,634.6406 Q1120.375,634.9844 1120.0313,635.3906 Q1119.5313,635.9688 1118.7344,636.2969 Q1117.6563,636.75 1116.3594,636.75 Q1114.8438,636.75 1113.6406,636.125 Q1112.6563,635.625 1111.9688,634.5625 Q1111.2813,633.4844 1111.2813,632.2031 L1111.2813,631.0469 Q1111.2813,629.7188 1111.8906,628.5781 Q1112.5156,627.4219 1113.6094,626.8125 Q1114.7031,626.1875 1115.9375,626.1875 Q1116.6719,626.1875 1117.3125,626.3594 Q1117.9688,626.5156 1118.5156,626.875 Z " fill="#000000"/><text fill="#000000" font-family="sans-serif" font-size="14" lengthAdjust="spacing" textLength="98" x="1136.25" y="636.7969">HabitacionSuite</text><line style="stroke:#181818;stroke-width:0.5;" x1="1061" x2="1277" y1="647" y2="647"/><line style="stroke:#181818;stroke-width:0.5;" x1="1061" x2="1277" y1="655" y2="655"/><ellipse cx="1071" cy="669.8105" fill="#84BE84" rx="3" ry="3" style="stroke:#038048;stroke-width:1.0;"/><text fill="#000000" font-family="sans-serif" font-size="14" lengthAdjust="spacing" textLength="185" x="1080" y="674.1074">aplicarServicioEspecial() void</text><ellipse cx="1071" cy="688.4316" fill="#84BE84" rx="3" ry="3" style="stroke:#038048;stroke-width:1.0;"/><text fill="#000000" font-family="sans-serif" font-size="14" lengthAdjust="spacing" textLength="143" x="1080" y="692.7285">solicitarLimpieza() void</text><ellipse cx="1071" cy="707.0527" fill="#84BE84" rx="3" ry="3" style="stroke:#038048;stroke-width:1.0;"/><text fill="#000000" font-family="sans-serif" font-size="14" lengthAdjust="spacing" textLength="192" x="1080" y="711.3496">pedirComida(String plato) void</text><ellipse cx="1071" cy="725.6738" fill="#84BE84" rx="3" ry="3" style="stroke:#038048;stroke-width:1.0;"/><text fill="#000000" font-family="sans-serif" font-size="14" lengthAdjust="spacing" textLength="159" x="1080" y="729.9707">solicitarLavanderia() void</text></g><!--class ControladorReservas--><g id="elem_ControladorReservas"><rect codeLine="131" fill="#F1F1F1" height="159.7266" id="ControladorReservas" rx="2.5" ry="2.5" style="stroke:#181818;stroke-width:0.5;" width="796" x="2333" y="348"/><ellipse cx="2659.25" cy="364" fill="#ADD1B2" rx="11" ry="11" style="stroke:#181818;stroke-width:1.0;"/><path d="M2662.0156,359.875 Q2662.1719,359.6563 2662.3594,359.5469 Q2662.5469,359.4375 2662.7656,359.4375 Q2663.1406,359.4375 2663.375,359.7031 Q2663.6094,359.9531 2663.6094,360.5625 L2663.6094,362.0156 Q2663.6094,362.625 2663.375,362.8906 Q2663.1406,363.1563 2662.7656,363.1563 Q2662.4219,363.1563 2662.2188,362.9531 Q2662.0156,362.7656 2661.9063,362.25 Q2661.8594,361.8906 2661.6719,361.7031 Q2661.3438,361.3281 2660.7344,361.1094 Q2660.125,360.8906 2659.5,360.8906 Q2658.7344,360.8906 2658.0938,361.2188 Q2657.4688,361.5469 2656.9688,362.2969 Q2656.4844,363.0469 2656.4844,364.0781 L2656.4844,365.1719 Q2656.4844,366.4063 2657.375,367.2344 Q2658.2656,368.0469 2659.8594,368.0469 Q2660.7969,368.0469 2661.4531,367.7969 Q2661.8438,367.6406 2662.2656,367.2031 Q2662.5313,366.9375 2662.6719,366.8594 Q2662.8281,366.7813 2663.0313,366.7813 Q2663.3594,366.7813 2663.6094,367.0469 Q2663.875,367.2969 2663.875,367.6406 Q2663.875,367.9844 2663.5313,368.3906 Q2663.0313,368.9688 2662.2344,369.2969 Q2661.1563,369.75 2659.8594,369.75 Q2658.3438,369.75 2657.1406,369.125 Q2656.1563,368.625 2655.4688,367.5625 Q2654.7813,366.4844 2654.7813,365.2031 L2654.7813,364.0469 Q2654.7813,362.7188 2655.3906,361.5781 Q2656.0156,360.4219 2657.1094,359.8125 Q2658.2031,359.1875 2659.4375,359.1875 Q2660.1719,359.1875 2660.8125,359.3594 Q2661.4688,359.5156 2662.0156,359.875 Z " fill="#000000"/><text fill="#000000" font-family="sans-serif" font-size="14" lengthAdjust="spacing" textLength="135" x="2679.75" y="369.7969">ControladorReservas</text><line style="stroke:#181818;stroke-width:0.5;" x1="2334" x2="3128" y1="380" y2="380"/><rect fill="none" height="6" style="stroke:#C82930;stroke-width:1.0;" width="6" x="2341" y="391.8105"/><text fill="#000000" font-family="sans-serif" font-size="14" lengthAdjust="spacing" textLength="329" x="2353" y="399.1074">GestorDisponibilidadHabitacion gestorDisponibilidad</text><rect fill="none" height="6" style="stroke:#C82930;stroke-width:1.0;" width="6" x="2341" y="410.4316"/><text fill="#000000" font-family="sans-serif" font-size="14" lengthAdjust="spacing" textLength="243" x="2353" y="417.7285">NotificadorReserva notificadorReserva</text><rect fill="none" height="6" style="stroke:#C82930;stroke-width:1.0;" width="6" x="2341" y="429.0527"/><text fill="#000000" font-family="sans-serif" font-size="14" lengthAdjust="spacing" textLength="247" x="2353" y="436.3496">GeneradorInformes generadorInformes</text><line style="stroke:#181818;stroke-width:0.5;" x1="2334" x2="3128" y1="443.8633" y2="443.8633"/><ellipse cx="2344" cy="458.6738" fill="#84BE84" rx="3" ry="3" style="stroke:#038048;stroke-width:1.0;"/><text fill="#000000" font-family="sans-serif" font-size="14" lengthAdjust="spacing" textLength="770" x="2353" y="462.9707">crearReserva(Cliente cliente, Habitacion habitacion, Date fechaInicio, Date fechaFin, PoliticaCancelacion politica) Reserva</text><ellipse cx="2344" cy="477.2949" fill="#84BE84" rx="3" ry="3" style="stroke:#038048;stroke-width:1.0;"/><text fill="#000000" font-family="sans-serif" font-size="14" lengthAdjust="spacing" textLength="277" x="2353" y="481.5918">cancelarReserva(Reserva reserva) boolean</text><ellipse cx="2344" cy="495.916" fill="#84BE84" rx="3" ry="3" style="stroke:#038048;stroke-width:1.0;"/><text fill="#000000" font-family="sans-serif" font-size="14" lengthAdjust="spacing" textLength="462" x="2353" y="500.2129">consultarDisponibilidad(Date fechaInicio, Date fechaFin) List~Habitacion~</text></g><!--class GeneradorInformes--><g id="elem_GeneradorInformes"><rect codeLine="140" fill="#F1F1F1" height="85.2422" id="GeneradorInformes" rx="2.5" ry="2.5" style="stroke:#181818;stroke-width:0.5;" width="440" x="2327" y="633.5"/><ellipse cx="2481.25" cy="649.5" fill="#ADD1B2" rx="11" ry="11" style="stroke:#181818;stroke-width:1.0;"/><path d="M2484.0156,645.375 Q2484.1719,645.1563 2484.3594,645.0469 Q2484.5469,644.9375 2484.7656,644.9375 Q2485.1406,644.9375 2485.375,645.2031 Q2485.6094,645.4531 2485.6094,646.0625 L2485.6094,647.5156 Q2485.6094,648.125 2485.375,648.3906 Q2485.1406,648.6563 2484.7656,648.6563 Q2484.4219,648.6563 2484.2188,648.4531 Q2484.0156,648.2656 2483.9063,647.75 Q2483.8594,647.3906 2483.6719,647.2031 Q2483.3438,646.8281 2482.7344,646.6094 Q2482.125,646.3906 2481.5,646.3906 Q2480.7344,646.3906 2480.0938,646.7188 Q2479.4688,647.0469 2478.9688,647.7969 Q2478.4844,648.5469 2478.4844,649.5781 L2478.4844,650.6719 Q2478.4844,651.9063 2479.375,652.7344 Q2480.2656,653.5469 2481.8594,653.5469 Q2482.7969,653.5469 2483.4531,653.2969 Q2483.8438,653.1406 2484.2656,652.7031 Q2484.5313,652.4375 2484.6719,652.3594 Q2484.8281,652.2813 2485.0313,652.2813 Q2485.3594,652.2813 2485.6094,652.5469 Q2485.875,652.7969 2485.875,653.1406 Q2485.875,653.4844 2485.5313,653.8906 Q2485.0313,654.4688 2484.2344,654.7969 Q2483.1563,655.25 2481.8594,655.25 Q2480.3438,655.25 2479.1406,654.625 Q2478.1563,654.125 2477.4688,653.0625 Q2476.7813,651.9844 2476.7813,650.7031 L2476.7813,649.5469 Q2476.7813,648.2188 2477.3906,647.0781 Q2478.0156,645.9219 2479.1094,645.3125 Q2480.2031,644.6875 2481.4375,644.6875 Q2482.1719,644.6875 2482.8125,644.8594 Q2483.4688,645.0156 2484.0156,645.375 Z " fill="#000000"/><text fill="#000000" font-family="sans-serif" font-size="14" lengthAdjust="spacing" textLength="123" x="2501.75" y="655.2969">GeneradorInformes</text><line style="stroke:#181818;stroke-width:0.5;" x1="2328" x2="2766" y1="665.5" y2="665.5"/><line style="stroke:#181818;stroke-width:0.5;" x1="2328" x2="2766" y1="673.5" y2="673.5"/><ellipse cx="2338" cy="688.3105" fill="#84BE84" rx="3" ry="3" style="stroke:#038048;stroke-width:1.0;"/><text fill="#000000" font-family="sans-serif" font-size="14" lengthAdjust="spacing" textLength="414" x="2347" y="692.6074">generarInformeOcupacion(Date fechaInicio, Date fechaFin) String</text><ellipse cx="2338" cy="706.9316" fill="#84BE84" rx="3" ry="3" style="stroke:#038048;stroke-width:1.0;"/><text fill="#000000" font-family="sans-serif" font-size="14" lengthAdjust="spacing" textLength="400" x="2347" y="711.2285">generarInformeIngresos(Date fechaInicio, Date fechaFin) String</text></g><!--reverse link CanalNotificacion to EnviadorCorreo--><g id="link_CanalNotificacion_EnviadorCorreo"><path d="M2898.5317,928.5118 C2845.3017,956.6918 2784.66,988.8 2731.46,1016.96 " fill="none" id="CanalNotificacion-backto-EnviadorCorreo" style="stroke:#181818;stroke-width:1.0;stroke-dasharray:7.0,7.0;"/><polygon fill="none" points="2914.44,920.09,2895.7245,923.2091,2901.339,933.8146,2914.44,920.09" style="stroke:#181818;stroke-width:1.0;"/></g><!--reverse link CanalNotificacion to EnviadorSMS--><g id="link_CanalNotificacion_EnviadorSMS"><path d="M2976,938.28 C2976,966.39 2976,988.67 2976,1016.77 " fill="none" id="CanalNotificacion-backto-EnviadorSMS" style="stroke:#181818;stroke-width:1.0;stroke-dasharray:7.0,7.0;"/><polygon fill="none" points="2976,920.28,2970,938.28,2982,938.28,2976,920.28" style="stroke:#181818;stroke-width:1.0;"/></g><!--reverse link CanalNotificacion to NotificadorSlack--><g id="link_CanalNotificacion_NotificadorSlack"><path d="M3053.4683,928.5118 C3106.6983,956.6918 3167.34,988.8 3220.54,1016.96 " fill="none" id="CanalNotificacion-backto-NotificadorSlack" style="stroke:#181818;stroke-width:1.0;stroke-dasharray:7.0,7.0;"/><polygon fill="none" points="3037.56,920.09,3050.661,933.8146,3056.2755,923.2091,3037.56,920.09" style="stroke:#181818;stroke-width:1.0;"/></g><!--reverse link Habitacion to HabitacionEstandar--><g id="link_Habitacion_HabitacionEstandar"><path d="M1566.7562,547.1723 C1522.2662,581.4823 1489.86,606.48 1455.2,633.21 " fill="none" id="Habitacion-backto-HabitacionEstandar" style="stroke:#181818;stroke-width:1.0;"/><polygon fill="none" points="1581.01,536.18,1563.0921,542.421,1570.4203,551.9235,1581.01,536.18" style="stroke:#181818;stroke-width:1.0;"/></g><!--reverse link ServicioLimpieza to HabitacionEstandar--><g id="link_ServicioLimpieza_HabitacionEstandar"><path d="M1400.2034,479.6699 C1400.3834,523.8399 1400.63,584.66 1400.83,633.14 " fill="none" id="ServicioLimpieza-backto-HabitacionEstandar" style="stroke:#181818;stroke-width:1.0;stroke-dasharray:7.0,7.0;"/><polygon fill="none" points="1400.13,461.67,1394.2034,479.6943,1406.2033,479.6454,1400.13,461.67" style="stroke:#181818;stroke-width:1.0;"/></g><!--reverse link Habitacion to HabitacionSuite--><g id="link_Habitacion_HabitacionSuite"><path d="M1517.4006,530.0294 C1506.6706,534.6194 1512.52,531.93 1502,536 C1412.67,570.57 1382.42,556.85 1295,596 C1282.75,601.49 1270.27,608.01 1258.17,614.91 " fill="none" id="Habitacion-backto-HabitacionSuite" style="stroke:#181818;stroke-width:1.0;"/><polygon fill="none" points="1533.95,522.95,1515.0408,524.5129,1519.7604,535.5458,1533.95,522.95" style="stroke:#181818;stroke-width:1.0;"/></g><!--reverse link ServicioLimpieza to HabitacionSuite--><g id="link_ServicioLimpieza_HabitacionSuite"><path d="M1356.9976,474.7909 C1320.4276,513.7309 1270.89,566.49 1225.57,614.76 " fill="none" id="ServicioLimpieza-backto-HabitacionSuite" style="stroke:#181818;stroke-width:1.0;stroke-dasharray:7.0,7.0;"/><polygon fill="none" points="1369.32,461.67,1352.624,470.6835,1361.3713,478.8984,1369.32,461.67" style="stroke:#181818;stroke-width:1.0;"/></g><!--reverse link ServicioComida to HabitacionSuite--><g id="link_ServicioComida_HabitacionSuite"><path d="M1169.796,479.6698 C1169.636,518.6098 1169.44,566.49 1169.24,614.76 " fill="none" id="ServicioComida-backto-HabitacionSuite" style="stroke:#181818;stroke-width:1.0;stroke-dasharray:7.0,7.0;"/><polygon fill="none" points="1169.87,461.67,1163.7961,479.6452,1175.796,479.6945,1169.87,461.67" style="stroke:#181818;stroke-width:1.0;"/></g><!--reverse link ServicioLavanderia to HabitacionSuite--><g id="link_ServicioLavanderia_HabitacionSuite"><path d="M976.8017,474.6587 C1014.1617,513.5987 1064.9,566.49 1111.21,614.76 " fill="none" id="ServicioLavanderia-backto-HabitacionSuite" style="stroke:#181818;stroke-width:1.0;stroke-dasharray:7.0,7.0;"/><polygon fill="none" points="964.34,461.67,972.4721,478.8126,981.1313,470.5048,964.34,461.67" style="stroke:#181818;stroke-width:1.0;"/></g><!--link Habitacion to GestorDisponibilidadHabitacion--><g id="link_Habitacion_GestorDisponibilidadHabitacion"><path codeLine="146" d="M1746.58,536.18 C1751.55,556.25 1756.67,576.89 1761.39,595.92 " fill="none" id="Habitacion-GestorDisponibilidadHabitacion" style="stroke:#181818;stroke-width:1.0;"/><text fill="#000000" font-family="sans-serif" font-size="13" lengthAdjust="spacing" textLength="7" x="1741.0586" y="557.7056">1</text><text fill="#000000" font-family="sans-serif" font-size="13" lengthAdjust="spacing" textLength="7" x="1752.2595" y="584.8084">1</text></g><!--link Reserva to Habitacion--><g id="link_Reserva_Habitacion"><path codeLine="147" d="M1940.36,246.96 C1911.09,270.87 1880.26,296.06 1851.24,319.77 " fill="none" id="Reserva-Habitacion" style="stroke:#181818;stroke-width:1.0;"/><text fill="#000000" font-family="sans-serif" font-size="13" lengthAdjust="spacing" textLength="20" x="1912.2859" y="267.6706">0..*</text><text fill="#000000" font-family="sans-serif" font-size="13" lengthAdjust="spacing" textLength="7" x="1853.2217" y="308.6154">1</text></g><!--link Reserva to Cliente--><g id="link_Reserva_Cliente"><path codeLine="148" d="M2139.47,260.24 C2154.01,289.97 2169.11,320.86 2182.3,347.85 " fill="none" id="Reserva-Cliente" style="stroke:#181818;stroke-width:1.0;"/><text fill="#000000" font-family="sans-serif" font-size="13" lengthAdjust="spacing" textLength="20" x="2122.2848" y="281.6768">0..*</text><text fill="#000000" font-family="sans-serif" font-size="13" lengthAdjust="spacing" textLength="7" x="2171.4097" y="336.7319">1</text></g><!--link Reserva to PoliticaCancelacion--><g id="link_Reserva_PoliticaCancelacion"><path codeLine="149" d="M1940.29,240.87 C1926.19,248.38 1911.65,254.97 1897,260 C1670.94,337.69 1055.37,263.92 823,320 C764.7,334.07 702.96,361.76 656.57,385.44 " fill="none" id="Reserva-PoliticaCancelacion" style="stroke:#181818;stroke-width:1.0;"/><text fill="#000000" font-family="sans-serif" font-size="13" lengthAdjust="spacing" textLength="7" x="1925.5676" y="243.3178">1</text><text fill="#000000" font-family="sans-serif" font-size="13" lengthAdjust="spacing" textLength="7" x="660.8968" y="374.3345">1</text></g><!--link Reserva to Promocion--><g id="link_Reserva_Promocion"><path codeLine="150" d="M2098.02,260.11 C2113.11,389.59 2121.31,594.72 2055,756 C2046.06,777.74 2031.73,798.12 2016.07,815.99 " fill="none" id="Reserva-Promocion" style="stroke:#181818;stroke-width:1.0;"/><text fill="#000000" font-family="sans-serif" font-size="13" lengthAdjust="spacing" textLength="22" x="2076.5415" y="281.9626">0..1</text><text fill="#000000" font-family="sans-serif" font-size="13" lengthAdjust="spacing" textLength="7" x="2016.9663" y="804.88">1</text></g><!--link PersonalLimpieza to Habitacion--><g id="link_PersonalLimpieza_Habitacion"><path codeLine="151" d="M1720,213.65 C1720,246.31 1720,284.66 1720,319.77 " fill="none" id="PersonalLimpieza-Habitacion" style="stroke:#181818;stroke-width:1.0;"/><text fill="#000000" font-family="sans-serif" font-size="13" lengthAdjust="spacing" textLength="7" x="1712.6992" y="235.3209">1</text><text fill="#000000" font-family="sans-serif" font-size="13" lengthAdjust="spacing" textLength="20" x="1699.2969" y="308.6154">0..*</text></g><!--reverse link PoliticaCancelacion to PoliticaCancelacionFlexible--><g id="link_PoliticaCancelacion_PoliticaCancelacionFlexible"><path codeLine="152" d="M566.1366,488.1154 C553.9666,533.4854 539.29,588.18 527.14,633.48 " fill="none" id="PoliticaCancelacion-backto-PoliticaCancelacionFlexible" style="stroke:#181818;stroke-width:1.0;stroke-dasharray:7.0,7.0;"/><polygon fill="none" points="570.8,470.73,560.3414,486.5609,571.9317,489.6699,570.8,470.73" style="stroke:#181818;stroke-width:1.0;"/></g><!--reverse link PoliticaCancelacion to PoliticaCancelacionModerada--><g id="link_PoliticaCancelacion_PoliticaCancelacionModerada"><path codeLine="153" d="M643.9757,482.4918 C696.5357,527.8618 766.42,588.18 818.89,633.48 " fill="none" id="PoliticaCancelacion-backto-PoliticaCancelacionModerada" style="stroke:#181818;stroke-width:1.0;stroke-dasharray:7.0,7.0;"/><polygon fill="none" points="630.35,470.73,640.0551,487.0337,647.8963,477.9499,630.35,470.73" style="stroke:#181818;stroke-width:1.0;"/></g><!--reverse link PoliticaCancelacion to PoliticaCancelacionEstricta--><g id="link_PoliticaCancelacion_PoliticaCancelacionEstricta"><path codeLine="154" d="M495.7565,479.8756 C418.8465,525.2456 312.16,588.18 235.39,633.48 " fill="none" id="PoliticaCancelacion-backto-PoliticaCancelacionEstricta" style="stroke:#181818;stroke-width:1.0;stroke-dasharray:7.0,7.0;"/><polygon fill="none" points="511.26,470.73,492.708,474.7078,498.8051,485.0435,511.26,470.73" style="stroke:#181818;stroke-width:1.0;"/></g><!--reverse link NotificadorReserva to CanalNotificacion--><g id="link_NotificadorReserva_CanalNotificacion"><path codeLine="155" d="M2976,749.03 C2976,786.68 2976,821.79 2976,852.71 " fill="none" id="NotificadorReserva-backto-CanalNotificacion" style="stroke:#181818;stroke-width:1.0;"/><polygon fill="none" points="2976,737.03,2972,743.03,2976,749.03,2980,743.03,2976,737.03" style="stroke:#181818;stroke-width:1.0;"/><text fill="#000000" font-family="sans-serif" font-size="13" lengthAdjust="spacing" textLength="7" x="2968.5734" y="759.5205">1</text><text fill="#000000" font-family="sans-serif" font-size="13" lengthAdjust="spacing" textLength="7" x="2968.3328" y="841.7406">1</text></g><!--link ControladorReservas to GestorDisponibilidadHabitacion--><g id="link_ControladorReservas_GestorDisponibilidadHabitacion"><path codeLine="156" d="M2425.84,508.02 C2300.64,540.44 2157.32,577.55 2037.63,608.55 " fill="none" id="ControladorReservas-GestorDisponibilidadHabitacion" style="stroke:#181818;stroke-width:1.0;"/><text fill="#000000" font-family="sans-serif" font-size="13" lengthAdjust="spacing" textLength="7" x="2392.3145" y="529.6798">1</text><text fill="#000000" font-family="sans-serif" font-size="13" lengthAdjust="spacing" textLength="7" x="2045.3526" y="603.3319">1</text></g><!--link ControladorReservas to NotificadorReserva--><g id="link_ControladorReservas_NotificadorReserva"><path codeLine="157" d="M2809.87,508.19 C2844.28,542.74 2883.98,582.6 2915.93,614.69 " fill="none" id="ControladorReservas-NotificadorReserva" style="stroke:#181818;stroke-width:1.0;"/><text fill="#000000" font-family="sans-serif" font-size="13" lengthAdjust="spacing" textLength="7" x="2809.3471" y="529.8644">1</text><text fill="#000000" font-family="sans-serif" font-size="13" lengthAdjust="spacing" textLength="7" x="2901.5797" y="603.6354">1</text></g><!--link ControladorReservas to GeneradorInformes--><g id="link_ControladorReservas_GeneradorInformes"><path codeLine="158" d="M2671.77,508.19 C2640.67,549.77 2603.83,599.02 2578.28,633.18 " fill="none" id="ControladorReservas-GeneradorInformes" style="stroke:#181818;stroke-width:1.0;"/><text fill="#000000" font-family="sans-serif" font-size="13" lengthAdjust="spacing" textLength="7" x="2659.3791" y="529.8644">1</text><text fill="#000000" font-family="sans-serif" font-size="13" lengthAdjust="spacing" textLength="7" x="2575.5338" y="622.3537">1</text></g><!--link GestorDisponibilidadHabitacion to Promocion--><g id="link_GestorDisponibilidadHabitacion_Promocion"><path codeLine="159" d="M1839.82,756.12 C1854.46,775.82 1870.06,796.79 1884.33,815.99 " fill="none" id="GestorDisponibilidadHabitacion-Promocion" style="stroke:#181818;stroke-width:1.0;"/><text fill="#000000" font-family="sans-serif" font-size="13" lengthAdjust="spacing" textLength="7" x="1837.5741" y="777.7884">1</text><text fill="#000000" font-family="sans-serif" font-size="13" lengthAdjust="spacing" textLength="20" x="1857.9703" y="804.88">0..*</text></g><!--SRC=[nLTBSnit3BxhLt1yYLnBdkRUIolRYMVoy4IPtgbTI6739NT8hYQDM__sWildFhmhPSQDBre31F3n0mY2hyY6KmsQ_4seKMpN6Ab9hPWeM4qvw4M1QatUqXqpj61IaCS5mRyr4uQ8fW8btVzRj1O7ObZj1QLiTXpG5w3P7nZ3YT-0DbBTC5rBmNQCivAMcVV3YBerl3g0-T36MruI31w5dp4YYbpyA7s8OL7de3YTxkWw82_9KRAov-AE2SgNDzG0sKFnXTuBXj8LIH9S4KFyk_24pMpJa_YEQVFq2JIe8tqYodteJFUWP2MjnHDYz9_W5bmTGR4zAsWloZpMdPGSg71UAghGnGPzUnmbdVUGU4hc0GM7S-mBoek6K-N8NcOKVOcVkVc9z4VU0jC-qINeeW5XV8ts_VQbw3kMmqqmxHKKw3-f9JxRTQ8u0lBa1ZYZ-tIg3MSO1KZXViy3kdwGd1aiYWqL1N0NeHxA_EB8KYokkDs44FVxjelHwZrCL6uoe5Ppbs2YrcBigX1hHruuM6evGbiWux7JP8IiTWew8gWeuzrE11psKiZKFLghOQkujQP3yMTldpIfka1fYMtX7Qjg1j_f1Bps52Vwdh9qW_vTiuF00wUdCT9scSeoCbe- -R5IK4di3-UOT7AUOKCm_KrO9bwHUqoCsjEYlJnqemcomQ72V7aN2nPMaB6oTAHTrGsKi0ar4Cw9xuMzPXMx1I3xxBlRsS1aq0o6mUyuVBEjwgU2U2zBK4ZnJmLngx7I2lE_W4ZrW04e_o1DUu7brG3YoAZADKj_gh2mDFqBVCd6BTrQWrBY5QGKo5I3-WLYRDzlNoP0M6fZO5g-ldYKtdKqZ57q9IxcqCNo6TjBPo2y8YpVIB5dgh9Jng1GKYyQMBbwVDQeKrjRLDZBfzUThpGMVu4jJ0N5SieQHngM7KqecNAYG7BDgP6JyUcH2ZpXR0H1L2txIKfj5aycBgAAm3S3ekmCuLbzFBTTMlDsECp6baJm51Tz7Dk6uGry7eXLZyVL12iUQ5XmgsiS1Ia_3UyfsJcPUonEeoJFgbk74_AZpvRroA4J0r688Unz8DMzs4jLuRrww4jytrL0q_dhpeihycCpz8fCZOwN94SQHxQ0OUQQa48tt9p_K1cREyBpga_LOvXYh2A8FnPDxJhZRApkz9SxkHS7t9VK9_jefwDFdaA4XcbHDZ_sdRt8idFn-eAir-tFT7aj0hyNlrvV_nADPXU4oJngKy2HP7USP2lZqs0mzWP_BcW6PwoKVlld-dfg53lBA8nEPnc5KMSnSYRjLcIWRN3tZJM6qxCtOpr4Cn-ltnPcsbCtKJ6Z_m40]--></g></svg>